<?xml version="1.0" encoding="utf-8"?>
<svg version="1.1" xmlns:sketch="http://www.bohemiancoding.com/sketch/ns"
	 xmlns="http://www.w3.org/2000/svg" xmlns:xlink="http://www.w3.org/1999/xlink" width="32px" height="16px" x="0px" y="0px" viewBox="0 0 32 16"
	 enable-background="new 0 0 32 16" xml:space="preserve">
<path id="download" fill="#FFFFFF" d="M2,12.6V14h12v-1.4H2z M12.4,6.6h-2.2V2H5.4v4.6H2.8l4.8,4.6L12.4,6.6z"/>
<path id="github" fill="#FFFFFF" d="M17.1,4.8C17.8,3.7,18.8,2.7,20,2c1.2-0.7,2.6-1,4-1c1.4,0,2.8,0.3,4,1c1.2,0.7,2.2,1.6,2.9,2.8
	S32,7.3,32,8.7c0,1.7-0.5,3.2-1.5,4.5c-1,1.3-2.3,2.3-3.9,2.8c-0.2,0-0.3,0-0.4-0.1c-0.1-0.1-0.2-0.2-0.2-0.3v-2.1
	c0-0.6-0.1-1.1-0.5-1.4c0.4,0,0.7-0.1,1.1-0.2c0.3-0.1,0.6-0.2,1-0.4c0.3-0.2,0.6-0.4,0.8-0.7c0.2-0.3,0.4-0.6,0.6-1.1
	c0.1-0.4,0.2-0.9,0.2-1.5c0-0.8-0.3-1.5-0.8-2.1c0.3-0.6,0.2-1.3-0.1-2c-0.2-0.1-0.5,0-0.8,0.1s-0.7,0.3-1,0.4L26,5
	c-0.6-0.2-1.3-0.3-2-0.3c-0.7,0-1.4,0.1-2,0.3c-0.1-0.1-0.3-0.2-0.4-0.3c-0.2-0.1-0.5-0.2-0.9-0.4c-0.4-0.2-0.7-0.2-0.9-0.1
	c-0.3,0.8-0.3,1.4-0.1,2c-0.5,0.6-0.8,1.3-0.8,2.1c0,0.6,0.1,1.1,0.2,1.5c0.1,0.4,0.3,0.8,0.5,1.1s0.5,0.5,0.8,0.7
	c0.3,0.2,0.7,0.3,1,0.4s0.7,0.1,1.1,0.2c-0.3,0.2-0.4,0.6-0.5,1c-0.1,0.1-0.3,0.1-0.5,0.2s-0.4,0.1-0.6,0.1s-0.5-0.1-0.7-0.2
	s-0.4-0.4-0.6-0.6c-0.1-0.2-0.3-0.4-0.5-0.5c-0.2-0.1-0.4-0.2-0.5-0.2l-0.2,0c-0.1,0-0.2,0-0.3,0c-0.1,0-0.1,0.1-0.1,0.1
	c0,0,0.1,0.1,0.1,0.1c0,0,0.1,0.1,0.1,0.1l0.1,0.1c0.2,0.1,0.3,0.2,0.5,0.4c0.1,0.2,0.3,0.4,0.3,0.5l0.1,0.2
	c0.1,0.3,0.2,0.5,0.5,0.6s0.4,0.3,0.7,0.3c0.2,0,0.5,0.1,0.7,0.1s0.4,0,0.6,0l0.3-0.1c0,0.3,0,0.6,0,0.9c0,0.3,0,0.5,0,0.5
	c0,0.1-0.1,0.3-0.2,0.3C21.8,16,21.6,16,21.5,16c-1.6-0.5-2.9-1.4-3.9-2.8S16,10.4,16,8.7C16,7.3,16.4,6,17.1,4.8z"/>
</svg>
