<svg width="100%" height="270px" viewBox="0 0 260 270" preserveAspectRatio="xMidYMid slice" version="1.1" xmlns="http://www.w3.org/2000/svg" xmlns:xlink="http://www.w3.org/1999/xlink" xmlns:sketch="http://www.bohemiancoding.com/sketch/ns">
  <path d="M168.108977,72 L153.537004,72 C147.966701,72 143.446971,76.533007 143.446971,82.1196729 L143.446971,94.2405396 C143.446971,96.8481557 145.555675,98.9630536 148.163211,98.9630536 L158.729403,98.9630536 C161.669495,98.9630536 163.279366,102.4045 161.397405,104.671004 L133.553448,138.168258 C131.679045,140.427182 128.217446,140.427182 126.335484,138.168258 L98.4990861,104.671004 C96.6095668,102.4045 98.2194372,98.9630536 101.159529,98.9630536 L111.876883,98.9630536 C114.476861,98.9630536 116.585565,96.8481557 116.585565,94.2405396 L116.585565,82.1196729 C116.585565,76.533007 112.073393,72 106.495532,72 L91.8026297,72 C85.2044283,72 79.3393604,76.2222156 77.2306568,82.4911066 L55.4709525,147.196371 C54.0802663,151.312463 53.6721301,155.693864 54.2616602,159.991883 L58.4488349,190.525248 C59.1139457,195.384207 63.248214,199 68.1382899,199 L191.780875,199 C196.655835,199 200.790103,195.391787 201.462772,190.547989 L205.725527,160.052525 C206.337732,155.709025 205.922037,151.289722 204.516235,147.143309 L182.665834,82.475946 C180.55713,76.2146353 174.699621,72 168.108977,72 L168.108977,72 Z M185.243138,186.25755 L74.7893979,186.25755 C71.9777931,186.25755 69.6347892,184.089591 69.415605,181.277307 L68.1911965,165.60887 C67.851083,161.28811 71.2597758,157.596514 75.582996,157.596514 L184.457098,157.596514 C188.780318,157.596514 192.181453,161.28811 191.848898,165.60887 L190.616931,181.277307 C190.397747,184.089591 188.062301,186.25755 185.243138,186.25755 L185.243138,186.25755 Z" id="download" fill="#404040"></path>
</svg>