<?xml version="1.0" encoding="UTF-8" standalone="no"?>
<svg width="200px" height="200px" viewBox="0 0 200 200" version="1.1" xmlns="http://www.w3.org/2000/svg" xmlns:xlink="http://www.w3.org/1999/xlink" xmlns:sketch="http://www.bohemiancoding.com/sketch/ns">
  <g id="Logo" fill="#FFFFFF">
    <path d="M100,60.9375 C78.4265625,60.9375 60.9375,78.4265625 60.9375,100 C60.9375,121.573438 78.4265625,139.0625 100,139.0625 C121.573438,139.0625 139.0625,121.573438 139.0625,100 C139.0625,78.4265625 121.573438,60.9375 100,60.9375" id="Fill-1" sketch:type="MSShapeGroup"></path>
    <path d="M100,0 C44.771875,0 0,44.771875 0,100 C0,155.228125 44.771875,200 100,200 C155.228125,200 200,155.228125 200,100 C200,44.771875 155.228125,0 100,0 L100,0 Z M100,170.3125 C61.1671875,170.3125 29.6875,138.832813 29.6875,100 C29.6875,61.1671875 61.1671875,29.6875 100,29.6875 C138.832813,29.6875 170.3125,61.1671875 170.3125,100 C170.3125,138.832813 138.832813,170.3125 100,170.3125 L100,170.3125 Z" id="Fill-2" sketch:type="MSShapeGroup"></path>
  </g>
</svg>