<?xml version="1.0" encoding="UTF-8" standalone="no"?>
<svg width="270px" height="200px" viewBox="0 0 270 200" version="1.1" xmlns="http://www.w3.org/2000/svg" xmlns:xlink="http://www.w3.org/1999/xlink" xmlns:sketch="http://www.bohemiancoding.com/sketch/ns">
    <!-- Generator: Sketch 3.1 (8751) - http://www.bohemiancoding.com/sketch -->
    <title>Vector 1</title>
    <desc>Created with Sketch.</desc>
    <defs></defs>
    <g id="Page-1" stroke="none" stroke-width="1" fill="none" fill-rule="evenodd" sketch:type="MSPage">
        <path d="M204.903429,98.8308571 C204.903429,95.2857143 204.551429,91.8348571 204.036,88.4342857 L224.54,76.5982857 L199.397143,33.0508571 L179.917714,44.8617143 C174.518286,40.5371429 169.150286,37.0297143 162.864571,34.4651429 L162.864571,12 L112.578857,12 L112.578857,34.4651429 C106.293143,37.0297143 98.9765714,40.5434286 93.5771429,44.8617143 L72.6142857,33.0508571 L47.2262857,76.5982857 L67.6045714,88.4342857 C67.0891429,91.8348571 66.6805714,95.2857143 66.6805714,98.8308571 C66.6805714,102.363429 67.0011429,105.814286 67.5102857,109.214857 L47,121.050857 L72.124,164.598286 L93.5645714,152.787429 C98.964,157.118286 106.293143,160.619429 112.578857,163.184 L112.578857,188 L162.864571,188 L162.864571,163.190286 C169.150286,160.625714 174.518286,157.124571 179.930286,152.793714 L199.887429,164.604571 L224.785143,121.057143 L204.161714,109.221143 C204.670857,105.820571 204.903429,102.369714 204.903429,98.8308571 L204.903429,98.8308571 Z M135.760571,130.259429 C118.399429,130.259429 104.332,116.192 104.332,98.8308571 C104.332,81.4697143 118.399429,67.4022857 135.760571,67.4022857 C153.121714,67.4022857 167.189143,81.4697143 167.189143,98.8308571 C167.189143,116.192 153.115429,130.259429 135.760571,130.259429 L135.760571,130.259429 Z" id="Shape" fill="#404040" sketch:type="MSShapeGroup"></path>
    </g>
</svg>